<?xml version="1.0" encoding="UTF-8"?>
<svg width="30px" height="30px" viewBox="0 0 17 16" version="1.1" xmlns="http://www.w3.org/2000/svg" xmlns:xlink="http://www.w3.org/1999/xlink">
  <!-- Generator: Sketch 54.1 (76490) - https://sketchapp.com -->
  <title>Artboard</title>
  <desc>Created with Sketch.</desc>
  <defs>
    <polygon id="path-1" points="14.5089286 16 0 16 0 8.00242393 0 0.00484786998 14.5089286 0.00484786998"></polygon>
  </defs>
  <g id="Artboard" stroke="none" stroke-width="1" fill="none" fill-rule="evenodd" transform="translate(1.000000, 0.000000)">
    <g id="logo" transform="translate(0.750000, 0.000000)">
      <path d="M4.87201674,4.34994686 L2.90371663,5.34432579 C2.83607301,5.37488807 2.79312761,5.44264061 2.79441781,5.51665289 L2.79017857,10.3180615 C2.79128446,10.3867346 2.83035924,10.4487797 2.89136752,10.4798944 L4.85413818,11.4240112 C4.97744493,11.4867928 5.12379106,11.3973152 5.12397538,11.2590486 L5.13392839,4.51914409 C5.1341127,4.38455957 4.99495487,4.2945297 4.87201674,4.34994686" id="Fill-19" fill="#2B67DB" fill-rule="nonzero"></path>
      <g id="Group-23" transform="translate(-0.000000, 0.000000)">
        <g id="Fill-21-Clipped">
          <mask id="mask-2" fill="white">
            <use xlink:href="#path-1"></use>
          </mask>
          <g id="path-1"></g>
          <path d="M6.4698802,6.17896092 L6.45518761,13.4519724 C6.4548203,13.5900873 6.30918004,13.6792828 6.18631329,13.6165701 L1.70782945,11.3682942 C1.64685522,11.3372138 1.60810353,11.2750529 1.60681792,11.2066391 L1.59396191,4.59128276 C1.59267631,4.51716781 1.63546847,4.44948966 1.7028707,4.41914482 L6.20890315,2.25050114 C6.33140258,2.19532873 6.4698802,2.28489196 6.4698802,2.41932873 L6.4698802,6.17896092 Z M13.7456488,2.82024828 L7.67559052,0.116064368 C7.33821202,-0.0343724138 6.95253164,-0.0319816092 6.61680606,0.121949426 L0.75005651,2.81583448 C0.292933431,3.02567357 0,3.48305288 0,3.9865931 L0,11.4210759 C0,11.8905931 0.255100022,12.322777 0.665757798,12.5493518 L6.63553911,15.8402023 C7.00542496,16.0443402 7.45134493,16.0533518 7.82912805,15.8650299 L13.7961545,12.8890299 C14.2328916,12.6712828 14.5089286,12.224754 14.5089286,11.7362942 L14.5089286,3.99689196 C14.5089286,3.48801839 14.2097508,3.02696092 13.7456488,2.82024828 L13.7456488,2.82024828 Z" id="Fill-21" fill="#2B67DB" fill-rule="nonzero" mask="url(#mask-2)"></path>
        </g>
      </g>
    </g>
  </g>
</svg>